:SAMPLES-PER-SECOND 30
:FULLY-SPECIFIED
:DEGREES
66
root  16.5881 39.5779 22.1249 108.314 -87.6675 -112.848
RightUpLeg  6.35482 -9.77345 0.410235
RightLeg  16.7467 -0.104428 2.68447
RightFoot  -16.28 -0.337432 -5.30083
RightToes  -1.16417e-010 0 -3.6325e-017
Spine  1.41199 1.05392 12.2059
Spine1  8.79773 2.12342 -3.59981
HEad  -9.30786 -3.49606 -2.09872
LeftShoulder1  7.96927 -11.3236 -46.887
LeftArm  -6.63354 27.1943 -28.966
LeftForeArm  25.9001 -15.1141 -4.79744
LeftHand  -0.244104 0.0205437 5.32207
RightShoulder  5.98007 9.24167 40.7377
RightArm  3.53549 -1.81104 33.2689
RightForeArm  5.93514 49.816 12.8745
RightHand  -0.761788 -0.0577887 -16.5859
LeftUpLeg  -20.6641 3.07399 7.2232
LeftLeg  15.1175 -2.26267 -0.273316
LeftFoot  1.44704 0.77358 -6.96656
LeftToes  5.72949e-011 -1.2716e-010 -5.73128e-012
67
root  15.075 39.3879 22.2558 154.168 -85.9929 -159.003
RightUpLeg  8.90684 -9.42253 -0.843871
RightLeg  17.0837 2.70969 2.43263
RightFoot  -18.2355 -0.39573 -4.51052
RightToes  -1.16417e-010 0 -3.6325e-017
Spine  1.51949 1.64987 12.2319
Spine1  9.30924 3.09892 -4.96783
HEad  -8.42864 -4.07658 -1.20931
LeftShoulder1  7.87077 -11.1777 -46.7639
LeftArm  -8.03842 28.7168 -29.2183
LeftForeArm  25.3223 -14.762 -4.66635
LeftHand  -0.244104 0.0205437 5.32207
RightShoulder  6.09051 9.4535 40.8188
RightArm  4.78374 0.0293394 33.6601
RightForeArm  7.07738 50.6952 13.2206
RightHand  -0.704998 -0.389833 -16.3552
LeftUpLeg  -19.1609 1.7136 8.05727
LeftLeg  6.0569 -6.12322 0.0424748
LeftFoot  0.0306157 0.72932 -7.35404
LeftToes  5.72949e-011 -1.2716e-010 -5.73128e-012
68
root  13.4855 39.1486 22.4473 166.916 -82.9819 -171.843
RightUpLeg  10.6957 -7.99736 -1.89484
RightLeg  18.319 4.4196 1.89788
RightFoot  -19.8379 -0.424661 -3.90554
RightToes  -1.16417e-010 0 -3.6325e-017
Spine  1.14945 2.27101 12.4766
Spine1  9.93191 4.11277 -6.31738
HEad  -7.21251 -4.9408 -0.279383
LeftShoulder1  7.77076 -11.0112 -46.6962
LeftArm  -9.31654 30.2157 -29.6637
LeftForeArm  24.8463 -14.2036 -4.57518
LeftHand  -0.244104 0.0205437 5.32207
RightShoulder  6.15739 9.6095 40.7723
RightArm  6.28655 1.37088 34.3417
RightForeArm  7.19317 49.913 12.8339
RightHand  -0.690234 -0.587061 -16.6443
LeftUpLeg  -18.5369 2.76274 8.37654
LeftLeg  3.27763 -8.46666 0.389735
LeftFoot  -0.821874 0.837449 -8.99256
LeftToes  5.72949e-011 -1.2716e-010 -5.73128e-012
69
root  11.8492 38.931 22.6848 172.884 -79.7913 -177.896
RightUpLeg  11.9097 -4.03229 -2.58438
RightLeg  20.2756 3.59413 1.12604
RightFoot  -21.0411 -0.332431 -2.30421
RightToes  -1.16417e-010 0 -3.6325e-017
Spine  0.697647 2.81243 12.4691
Spine1  10.5219 5.05363 -7.62121
HEad  -5.99212 -5.92335 0.800238
LeftShoulder1  7.70914 -10.8404 -46.8805
LeftArm  -10.0106 31.222 -29.9369
LeftForeArm  24.9342 -12.9756 -4.67701
LeftHand  -0.244104 0.0205437 5.32207
RightShoulder  6.22201 9.66375 41.0518
RightArm  7.78257 1.94838 34.8333
RightForeArm  7.04961 47.9772 11.9555
RightHand  -0.749365 -0.225859 -16.8406
LeftUpLeg  -18.6472 2.85085 8.39947
LeftLeg  6.53585 -6.87284 -0.14238
LeftFoot  1.36494 1.15146 -10.3884
LeftToes  5.72949e-011 -1.2716e-010 -5.73128e-012
70
root  10.1824 38.7314 22.9258 177.461 -76.6661 176.885
RightUpLeg  12.5627 1.97078 -3.19499
RightLeg  24.2154 1.13991 0.340208
RightFoot  -21.1119 0.00326739 1.82608
RightToes  -1.16417e-010 0 -3.6325e-017
Spine  0.909159 3.19247 11.4343
Spine1  10.7534 5.68905 -8.21895
HEad  -4.65978 -7.31601 2.03298
LeftShoulder1  7.73056 -10.7243 -47.4029
LeftArm  -10.2578 31.3503 -29.9509
LeftForeArm  25.7114 -10.7173 -4.94003
LeftHand  -0.244104 0.0205437 5.32207
RightShoulder  6.38821 9.75134 41.9323
RightArm  8.89676 1.62248 34.8147
RightForeArm  7.0638 44.9859 10.7234
RightHand  -0.867611 0.672398 -16.6644
LeftUpLeg  -18.4091 1.34448 7.72258
LeftLeg  12.3287 -3.45909 -0.252391
LeftFoot  4.4939 1.41485 -10.3774
LeftToes  5.72949e-011 -1.2716e-010 -5.73128e-012
71
root  8.56705 38.6692 23.117 -178.687 -73.4533 171.949
RightUpLeg  11.476 6.56723 -4.47097
RightLeg  31.3372 -0.709747 -0.725105
RightFoot  -17.1893 0.179771 6.01087
RightToes  -1.16417e-010 0 -3.6325e-017
Spine  1.7508 3.40412 9.13891
Spine1  10.7117 5.94298 -7.93583
HEad  -3.45507 -8.8389 3.19729
LeftShoulder1  7.83089 -10.7266 -48.0187
LeftArm  -10.1624 30.6767 -30.0351
LeftForeArm  26.4712 -8.07219 -5.10138
LeftHand  -0.244104 0.0205437 5.32207
RightShoulder  6.60234 9.91411 42.874
RightArm  9.59527 0.699039 35.0489
RightForeArm  6.37478 40.2892 9.10663
RightHand  -1.02854 1.71873 -16.8757
LeftUpLeg  -17.0427 0.491773 6.22495
LeftLeg  17.214 -1.05599 -0.0706043
LeftFoot  4.5081 1.19307 -8.71184
LeftToes  5.72949e-011 -1.2716e-010 -5.73128e-012
72
root  7.07174 38.8301 23.2544 -176.065 -69.8325 168.503
RightUpLeg  7.25482 8.77923 -6.39184
RightLeg  41.1529 -2.63526 -2.78965
RightFoot  -7.91687 -0.18733 5.91581
RightToes  -1.16417e-010 0 -3.6325e-017
Spine  2.49009 3.46289 6.42993
Spine1  10.6765 5.90577 -7.3711
HEad  -2.92073 -9.6042 3.85478
LeftShoulder1  7.99504 -10.9001 -48.4407
LeftArm  -9.7359 29.6377 -30.3218
LeftForeArm  27.0391 -6.27913 -5.13758
LeftHand  -0.244104 0.0205437 5.32207
RightShoulder  6.70907 10.0225 43.239
RightArm  10.6644 -0.151995 36.3457
RightForeArm  3.62713 33.5169 7.23603
RightHand  -1.27599 2.83158 -18.0962
LeftUpLeg  -14.6065 3.04114 4.2128
LeftLeg  19.6636 -0.705198 0.0444771
LeftFoot  1.36023 0.770479 -7.0018
LeftToes  5.72949e-011 -1.2716e-010 -5.73128e-012
73
root  5.7077 39.0829 23.3576 -174.988 -65.9833 167.207
RightUpLeg  0.73219 8.74791 -8.21977
RightLeg  50.8981 -4.23395 -5.92854
RightFoot  2.03758 -0.22058 1.97344
RightToes  -1.16417e-010 0 -3.6325e-017
Spine  2.82735 3.24683 4.08324
Spine1  10.6556 5.4687 -6.8454
HEad  -3.18136 -9.10489 3.6835
LeftShoulder1  8.22707 -11.2269 -48.745
LeftArm  -9.28919 28.535 -30.4333
LeftForeArm  28.3078 -5.83974 -5.26577
LeftHand  -0.244104 0.0205437 5.32207
RightShoulder  6.72219 10.0559 43.2151
RightArm  12.9947 -0.710691 38.0003
RightForeArm  -1.25973 25.8248 5.71966
RightHand  -1.63399 4.24965 -19.7645
LeftUpLeg  -11.7437 7.11026 2.79369
LeftLeg  19.937 -0.552917 0.112228
LeftFoot  -1.77553 0.549825 -6.46382
LeftToes  5.72949e-011 -1.2716e-010 -5.73128e-012
74
root  4.4121 39.3694 23.4297 -175.45 -62.6939 167.835
RightUpLeg  -5.58633 6.74504 -8.94639
RightLeg  57.5611 -4.76665 -8.43451
RightFoot  6.31845 0.177824 -0.965589
RightToes  -1.16417e-010 0 -3.6325e-017
Spine  3.03842 2.57948 2.42372
Spine1  10.4496 4.4119 -5.87496
HEad  -3.88193 -7.96589 2.96725
LeftShoulder1  8.49105 -11.5732 -49.1577
LeftArm  -8.705 27.1625 -30.0108
LeftForeArm  29.8512 -6.13612 -5.45962
LeftHand  -0.244104 0.0205437 5.32207
RightShoulder  6.79927 10.1639 43.3734
RightArm  14.0152 -1.60279 38.3132
RightForeArm  -4.04606 19.1608 5.96774
RightHand  -1.95004 5.54637 -20.7912
LeftUpLeg  -8.73936 10.3279 2.28758
LeftLeg  18.8195 -0.22345 0.231743
LeftFoot  -3.34438 0.466367 -6.37993
LeftToes  5.72949e-011 -1.2716e-010 -5.73128e-012
75
root  3.13435 39.7249 23.4522 -176.946 -60.2709 169.657
RightUpLeg  -10.4237 3.36358 -8.19414
RightLeg  59.8007 -4.28236 -8.40289
RightFoot  5.1989 0.110124 -0.464698
RightToes  -1.16417e-010 0 -3.6325e-017
Spine  3.39372 1.61504 1.4886
Spine1  10.0359 2.96062 -4.33001
HEad  -4.76134 -7.15935 2.42723
LeftShoulder1  8.66259 -11.7771 -49.4838
LeftArm  -8.31433 25.1395 -29.144
LeftForeArm  30.3673 -6.30161 -5.57896
LeftHand  -0.244104 0.0205437 5.32207
RightShoulder  6.93832 10.3477 43.6907
RightArm  10.2508 -3.48999 36.6606
RightForeArm  -0.141069 14.5559 8.04931
RightHand  -2.00209 5.83917 -20.7798
LeftUpLeg  -5.49983 11.9382 2.6435
LeftLeg  16.7873 0.456259 0.147898
LeftFoot  -4.30693 0.39499 -5.9997
LeftToes  5.72949e-011 -1.2716e-010 -5.73128e-012
76
root  1.90544 40.0216 23.3991 -178.167 -57.9657 171.342
RightUpLeg  -14.3255 0.00581894 -6.57987
RightLeg  58.2191 -3.4512 -6.47792
RightFoot  2.86778 -0.266366 2.28562
RightToes  -1.16417e-010 0 -3.6325e-017
Spine  3.9348 0.854265 0.594326
Spine1  9.5234 1.68162 -3.00913
HEad  -5.83057 -6.87199 2.4622
LeftShoulder1  8.62608 -11.7886 -49.2374
LeftArm  -8.64093 22.6393 -28.1972
LeftForeArm  29.2895 -6.32723 -5.47552
LeftHand  -0.244104 0.0205437 5.32207
RightShoulder  6.95538 10.3909 43.6602
RightArm  8.39979 -6.32939 34.3105
RightForeArm  3.59627 12.3391 8.76596
RightHand  -1.8845 5.41419 -20.3415
LeftUpLeg  -2.42336 12.3222 3.38375
LeftLeg  14.8177 2.35138 -0.45004
LeftFoot  -5.69123 0.320915 -5.82102
LeftToes  5.72949e-011 -1.2716e-010 -5.73128e-012
